<mxfile host="Electron" modified="2025-02-27T07:53:01.746Z" agent="Mozilla/5.0 (Windows NT 10.0; Win64; x64) AppleWebKit/537.36 (KHTML, like Gecko) draw.io/24.6.1 Chrome/124.0.6367.207 Electron/30.0.6 Safari/537.36" etag="TdT-HA7QSmORe5g09_3U" version="24.6.1" type="device">
  <diagram name="第 1 页" id="6qoOmoNlz2ZpB9ro88qo">
    <mxGraphModel dx="1036" dy="614" grid="1" gridSize="10" guides="1" tooltips="1" connect="1" arrows="1" fold="1" page="1" pageScale="1" pageWidth="827" pageHeight="1169" math="0" shadow="0">
      <root>
        <mxCell id="0" />
        <mxCell id="1" parent="0" />
        <mxCell id="sHzPaMJZmRwaCWm4jTeg-3" value="" style="edgeStyle=orthogonalEdgeStyle;rounded=0;orthogonalLoop=1;jettySize=auto;html=1;" edge="1" parent="1" source="sHzPaMJZmRwaCWm4jTeg-1" target="sHzPaMJZmRwaCWm4jTeg-2">
          <mxGeometry relative="1" as="geometry" />
        </mxCell>
        <mxCell id="sHzPaMJZmRwaCWm4jTeg-1" value="OAP Server" style="ellipse;whiteSpace=wrap;html=1;" vertex="1" parent="1">
          <mxGeometry x="200" y="140" width="120" height="80" as="geometry" />
        </mxCell>
        <mxCell id="sHzPaMJZmRwaCWm4jTeg-5" value="" style="edgeStyle=orthogonalEdgeStyle;rounded=0;orthogonalLoop=1;jettySize=auto;html=1;" edge="1" parent="1" source="sHzPaMJZmRwaCWm4jTeg-2" target="sHzPaMJZmRwaCWm4jTeg-4">
          <mxGeometry relative="1" as="geometry" />
        </mxCell>
        <mxCell id="sHzPaMJZmRwaCWm4jTeg-2" value="ModuleManager" style="whiteSpace=wrap;html=1;" vertex="1" parent="1">
          <mxGeometry x="200" y="310" width="120" height="60" as="geometry" />
        </mxCell>
        <mxCell id="sHzPaMJZmRwaCWm4jTeg-7" value="" style="edgeStyle=orthogonalEdgeStyle;rounded=0;orthogonalLoop=1;jettySize=auto;html=1;" edge="1" parent="1" source="sHzPaMJZmRwaCWm4jTeg-4" target="sHzPaMJZmRwaCWm4jTeg-6">
          <mxGeometry relative="1" as="geometry" />
        </mxCell>
        <mxCell id="sHzPaMJZmRwaCWm4jTeg-4" value="ApplicationConfigLoader" style="whiteSpace=wrap;html=1;" vertex="1" parent="1">
          <mxGeometry x="175" y="510" width="170" height="60" as="geometry" />
        </mxCell>
        <mxCell id="sHzPaMJZmRwaCWm4jTeg-9" value="" style="edgeStyle=orthogonalEdgeStyle;rounded=0;orthogonalLoop=1;jettySize=auto;html=1;" edge="1" parent="1" source="sHzPaMJZmRwaCWm4jTeg-6" target="sHzPaMJZmRwaCWm4jTeg-8">
          <mxGeometry relative="1" as="geometry" />
        </mxCell>
        <mxCell id="sHzPaMJZmRwaCWm4jTeg-11" style="edgeStyle=orthogonalEdgeStyle;rounded=0;orthogonalLoop=1;jettySize=auto;html=1;entryX=0;entryY=0.5;entryDx=0;entryDy=0;" edge="1" parent="1" source="sHzPaMJZmRwaCWm4jTeg-6" target="sHzPaMJZmRwaCWm4jTeg-10">
          <mxGeometry relative="1" as="geometry" />
        </mxCell>
        <mxCell id="sHzPaMJZmRwaCWm4jTeg-6" value="加载所有模块" style="whiteSpace=wrap;html=1;" vertex="1" parent="1">
          <mxGeometry x="200" y="650" width="120" height="60" as="geometry" />
        </mxCell>
        <mxCell id="sHzPaMJZmRwaCWm4jTeg-8" value="启动所有模块" style="whiteSpace=wrap;html=1;" vertex="1" parent="1">
          <mxGeometry x="200" y="790" width="120" height="60" as="geometry" />
        </mxCell>
        <mxCell id="sHzPaMJZmRwaCWm4jTeg-13" value="" style="edgeStyle=orthogonalEdgeStyle;rounded=0;orthogonalLoop=1;jettySize=auto;html=1;" edge="1" parent="1" source="sHzPaMJZmRwaCWm4jTeg-10" target="sHzPaMJZmRwaCWm4jTeg-12">
          <mxGeometry relative="1" as="geometry" />
        </mxCell>
        <mxCell id="sHzPaMJZmRwaCWm4jTeg-10" value="加载模块" style="ellipse;whiteSpace=wrap;html=1;" vertex="1" parent="1">
          <mxGeometry x="660" y="640" width="120" height="80" as="geometry" />
        </mxCell>
        <mxCell id="sHzPaMJZmRwaCWm4jTeg-12" value="模块设计" style="whiteSpace=wrap;html=1;" vertex="1" parent="1">
          <mxGeometry x="660" y="810" width="120" height="60" as="geometry" />
        </mxCell>
      </root>
    </mxGraphModel>
  </diagram>
</mxfile>
